# xmcd
#
# Track frame offsets: 
#        150
#        11698
#        21795
#        33700
#        44262
#        60161
#        76488
#        90265
#        101797
#        116888
#        130675
#        145420
#        159425
#        174429
#        184212
#        198778
#        211178
#        221527
#        233428
#        244363
#        256730
#        265035
#        274094
#        283394
#        294932
#        304529
#
# Disc length: 4171 seconds
#
# Revision: 0
# Processed by: cddbd v1.5.2PL0 Copyright (c) Steve Scherf et al.
# Submitted via: ExactAudioCopyFreeDBPlugin 1.0
#
DISCID=6910491a
DTITLE=Various Artist - Charlotte, N. C. Gospel (1920-1938)
DYEAR=1996
DGENRE=Gospel
TTITLE0=Biddle University Quintet - Who'll Be a Witness
TTITLE1=Biddle University Quintet - Ezekiel Saw de Wheel
TTITLE2=Biddle University Quintet - Heaven
TTITLE3=Biddle University Quintet - I've Got a Home in That Rock
TTITLE4=Livingston College Male Quartet - Good Old Songs
TTITLE5=Livingston College Male Quartet - Quartet Rehearsal
TTITLE6=Livingston College Male Quartet - Mosquito
TTITLE7=Livingston College Male Quartet - Gospel Train
TTITLE8=The Four Gospel Singers - Do You Want to Be a Worker for the L
TTITLE8=ord?
TTITLE9=The Four Gospel Singers - Angels Shouting Glory (Just to Tell 
TTITLE9=the Story)
TTITLE10=The Four Gospel Singers - Dry Bones
TTITLE11=The Four Gospel Singers - New Jerusalem
TTITLE12=Evening Four - Don't Feel No Way Tired
TTITLE13=Evening Four - Don't Drive Me Away
TTITLE14=Evening Four - See How They Done My Lord
TTITLE15=Evening Four - Got a Mother 'Way Over Yonder
TTITLE16=Evening Four - Hard Trials
TTITLE17=Evening Four - Oh Link, Oh Link
TTITLE18=The Carolinians - Precious Lord
TTITLE19=The Carolinians - On the Battlefield
TTITLE20=The Carolinians - Dry Bones
TTITLE21=The Carolinians - Bad Conditions
TTITLE22=The Carolinians - Let the Church Roll On
TTITLE23=The Carolinians - I'm A-Rollin'
TTITLE24=The Carolinians - John Was a Writer
TTITLE25=The Carolinians - You Better Mind
EXTD=
EXTT0=
EXTT1=
EXTT2=
EXTT3=
EXTT4=
EXTT5=
EXTT6=
EXTT7=
EXTT8=
EXTT9=
EXTT10=
EXTT11=
EXTT12=
EXTT13=
EXTT14=
EXTT15=
EXTT16=
EXTT17=
EXTT18=
EXTT19=
EXTT20=
EXTT21=
EXTT22=
EXTT23=
EXTT24=
EXTT25=
PLAYORDER=
